<?xml version="1.0"?>

<!DOCTYPE svg PUBLIC '-//W3C//DTD SVG 1.0//EN' 'http://www.w3.org/TR/2001/REC-SVG-20010904/DTD/svg10.dtd'>
<svg fill-opacity="1" xmlns:xlink="http://www.w3.org/1999/xlink" color-rendering="auto" color-interpolation="auto" stroke="black" text-rendering="auto" stroke-linecap="square" width="1480" stroke-miterlimit="10" stroke-opacity="1" shape-rendering="auto" fill="black" stroke-dasharray="none" font-weight="normal" stroke-width="1" height="1125" xmlns="http://www.w3.org/2000/svg" font-family="&apos;Dialog&apos;" font-style="normal" stroke-linejoin="miter" font-size="12" stroke-dashoffset="0" image-rendering="auto">
  <!--Generated by Marvin with Batik SVG Generator
MolSource:
<?xml version="1.0" encoding="MacRoman"?><cml xmlns="http://www.chemaxon.com" xmlns:xsi="http://www.w3.org/2001/XMLSchema-instance" xsi:schemaLocation="http://www.chemaxon.com/marvin/help/formats/schema/mrvSchema_6_2_0.xsd" version="ChemAxon file format v6.2, generated by v6.2.0">
<MDocument atomSetFont="0:Arial-PLAIN-18" bondSetLineThickness="0:0.06"><MChemicalStruct><molecule molID="m1"><atomArray atomID="a1 a2 a3 a4 a5 a6 a7 a8 a9 a10 a11 a12 a13 a14 a15 a16 a17 a18 a19 a20 a21 a22 a23 a24 a25 a26 a27 a28 a29 a30 a31" elementType="C C C C C C N C C C C C C I F F F C O N C C C C N C C C C O H" x2="-4.34499979019165 -5.678669131239909 -5.678669131239909 -4.34499979019165 -3.011330449143392 -3.011330449143392 -1.6776464370061612 -0.3439673151781255 -0.34394775383375276 0.9897607099032499 2.3234496122958808 2.323430050951508 0.9897215872145049 -7.0123531433771396 -4.34499979019165 -1.677626875661788 0.9897509292310638 0.9897313678866911 -0.34394286357835335 2.323415380023922 3.8109386210548513 4.2095293979085575 2.7220061568776286 5.697055170393723 6.786013445292412 8.273571944424557 8.672172168658008 7.58321389375932 6.095655394627176 3.8109480684506756 5.298473840935841" y2="-1.264966185639121 -2.0349831261981617 -3.5750170073162426 -4.345033947875283 -3.5750170073162426 -2.0349831261981617 -1.2649915965242704 -2.03499159652427 -3.574991596400035 -4.3450085369590745 -3.5750254776423507 -2.0350254777665864 -1.2650085372075461 -4.345008536990134 0.27503381436087904 -4.344991596400035 -5.885008536928016 0.27499146276139497 1.044999933056445 1.0449829924352863 0.6463922155815796 2.1339154566125087 2.532506233466215 2.5324967860703906 1.4435661750902091 1.8421562736267192 3.3296769831434117 4.418607594123593 4.020017495587082 3.621441229097674 4.020022558555556"></atomArray><bondArray><bond id="b1" atomRefs2="a1 a2" order="2"></bond><bond id="b2" atomRefs2="a1 a6" order="1"></bond><bond id="b3" atomRefs2="a2 a3" order="1"></bond><bond id="b4" atomRefs2="a3 a4" order="2"></bond><bond id="b5" atomRefs2="a4 a5" order="1"></bond><bond id="b6" atomRefs2="a5 a6" order="2"></bond><bond id="b7" atomRefs2="a6 a7" order="1"></bond><bond id="b8" atomRefs2="a7 a8" order="1"></bond><bond id="b9" atomRefs2="a9 a10" order="1"></bond><bond id="b10" atomRefs2="a10 a11" order="2"></bond><bond id="b11" atomRefs2="a11 a12" order="1"></bond><bond id="b12" atomRefs2="a12 a13" order="2"></bond><bond id="b13" atomRefs2="a8 a9" order="2"></bond><bond id="b14" atomRefs2="a8 a13" order="1"></bond><bond id="b15" atomRefs2="a3 a14" order="1"></bond><bond id="b16" atomRefs2="a1 a15" order="1"></bond><bond id="b17" atomRefs2="a9 a16" order="1"></bond><bond id="b18" atomRefs2="a10 a17" order="1"></bond><bond id="b19" atomRefs2="a13 a18" order="1"></bond><bond id="b20" atomRefs2="a18 a19" order="2"></bond><bond id="b21" atomRefs2="a18 a20" order="1"></bond><bond id="b22" atomRefs2="a21 a22" order="1"></bond><bond id="b23" atomRefs2="a22 a23" order="1"></bond><bond id="b24" atomRefs2="a20 a21" order="1"></bond><bond id="b25" atomRefs2="a23 a20" order="1"></bond><bond id="b26" atomRefs2="a22 a24" order="1"></bond><bond id="b27" atomRefs2="a25 a26" order="1"></bond><bond id="b28" atomRefs2="a26 a27" order="1"></bond><bond id="b29" atomRefs2="a27 a28" order="1"></bond><bond id="b30" atomRefs2="a28 a29" order="1"></bond><bond id="b31" atomRefs2="a24 a25" order="1"></bond><bond id="b32" atomRefs2="a24 a29" order="1"></bond><bond id="b33" atomRefs2="a22 a30" order="1"></bond><bond id="b34" atomRefs2="a24 a31" order="1"><bondStereo>W</bondStereo></bond></bondArray></molecule></MChemicalStruct></MDocument>
</cml>-->
  <defs id="genericDefs" />
  <g>
    <defs id="defs1">
      <clipPath clipPathUnits="userSpaceOnUse" id="clipPath1">
        <path d="M0 0 L1480 0 L1480 1125 L0 1125 L0 0 Z" />
      </clipPath>
      <clipPath clipPathUnits="userSpaceOnUse" id="clipPath2">
        <path d="M1151.2249755859375 74 C1163.8585205078125 74 1174.0999755859375 86.7598876953125 1174.0999755859375 102.5 L1174.0999755859375 144.3000030517578 C1174.0999755859375 160.0401153564453 1163.8585205078125 172.8000030517578 1151.2249755859375 172.8000030517578 L1129.875 172.8000030517578 C1117.241455078125 172.8000030517578 1107 160.0401153564453 1107 144.3000030517578 L1107 102.5 C1107 86.7598876953125 1117.241455078125 74 1129.875 74 ZM1000.3499755859375 111 C1026.4454345703125 111 1047.5999755859375 123.7598876953125 1047.5999755859375 139.5 L1047.5999755859375 181.3000030517578 C1047.5999755859375 197.0401153564453 1026.4454345703125 209.8000030517578 1000.3499755859375 209.8000030517578 L956.25 209.8000030517578 C930.154541015625 209.8000030517578 909 197.0401153564453 909 181.3000030517578 L909 139.5 C909 123.7598876953125 930.154541015625 111 956.25 111 ZM1270.449951171875 309 C1295.717041015625 309 1316.199951171875 321.7598876953125 1316.199951171875 337.5 L1316.199951171875 379.29998779296875 C1316.199951171875 395.0401306152344 1295.717041015625 407.79998779296875 1270.449951171875 407.79998779296875 L1227.75 407.79998779296875 C1202.4830322265625 407.79998779296875 1182 395.0401306152344 1182 379.29998779296875 L1182 337.5 C1182 321.7598876953125 1202.4830322265625 309 1227.75 309 ZM638.125 345 C651.5869140625 345 662.5 357.7598876953125 662.5 373.5 L662.5 415.29998779296875 C662.5 431.0401306152344 651.5869140625 443.79998779296875 638.125 443.79998779296875 L615.375 443.79998779296875 C601.9130859375 443.79998779296875 591 431.0401306152344 591 415.29998779296875 L591 373.5 C591 357.7598876953125 601.9130859375 345 615.375 345 ZM880.2249755859375 345 C892.8585205078125 345 903.0999755859375 357.7598876953125 903.0999755859375 373.5 L903.0999755859375 415.29998779296875 C903.0999755859375 431.0401306152344 892.8585205078125 443.79998779296875 880.2249755859375 443.79998779296875 L858.875 443.79998779296875 C846.2415161132812 443.79998779296875 836 431.0401306152344 836 415.29998779296875 L836 373.5 C836 357.7598876953125 846.2415161132812 345 858.875 345 ZM270.9750061035156 416 C281.5374450683594 416 290.1000061035156 428.7598876953125 290.1000061035156 444.5 L290.1000061035156 486.29998779296875 C290.1000061035156 502.0401306152344 281.5374450683594 514.7999877929688 270.9750061035156 514.7999877929688 L253.125 514.7999877929688 C242.56256103515625 514.7999877929688 234 502.0401306152344 234 486.29998779296875 L234 444.5 C234 428.7598876953125 242.56256103515625 416 253.125 416 ZM516.2249755859375 480 C528.8585205078125 480 539.0999755859375 492.7598876953125 539.0999755859375 508.5 L539.0999755859375 550.2999877929688 C539.0999755859375 556.7159423828125 537.3983764648438 562.63671875 534.5266723632812 567.4000244140625 L534.5266723632812 567.4000244140625 C537.3983764648438 572.1632690429688 539.0999755859375 578.0840454101562 539.0999755859375 584.5 L539.0999755859375 626.2999877929688 C539.0999755859375 642.0401000976562 528.8585205078125 654.7999877929688 516.2249755859375 654.7999877929688 L494.875 654.7999877929688 C482.2414855957031 654.7999877929688 472 642.0401000976562 472 626.2999877929688 L472 584.5 C472 578.0840454101562 473.70166015625 572.1632690429688 476.5733337402344 567.4000244140625 L476.5733337402344 567.4000244140625 C473.70166015625 562.63671875 472 556.7159423828125 472 550.2999877929688 L472 508.5 C472 492.7598876953125 482.2414855957031 480 494.875 480 ZM21.674999237060547 836 C26.43845558166504 836 30.299999237060547 848.7598876953125 30.299999237060547 864.5 L30.299999237060547 906.2999877929688 C30.299999237060547 922.0401000976562 26.43845558166504 934.7999877929688 21.674999237060547 934.7999877929688 L13.625 934.7999877929688 C8.861543655395508 934.7999877929688 5 922.0401000976562 5 906.2999877929688 L5 864.5 C5 848.7598876953125 8.861543655395508 836 13.625 836 ZM513.9749755859375 836 C524.5374755859375 836 533.0999755859375 848.7598876953125 533.0999755859375 864.5 L533.0999755859375 906.2999877929688 C533.0999755859375 922.0401000976562 524.5374755859375 934.7999877929688 513.9749755859375 934.7999877929688 L496.125 934.7999877929688 C485.56256103515625 934.7999877929688 477 922.0401000976562 477 906.2999877929688 L477 864.5 C477 848.7598876953125 485.56256103515625 836 496.125 836 ZM756.9749755859375 977 C767.5374755859375 977 776.0999755859375 989.7598876953125 776.0999755859375 1005.5 L776.0999755859375 1047.300048828125 C776.0999755859375 1063.0401611328125 767.5374755859375 1075.800048828125 756.9749755859375 1075.800048828125 L739.125 1075.800048828125 C728.5625610351562 1075.800048828125 720 1063.0401611328125 720 1047.300048828125 L720 1005.5 C720 989.7598876953125 728.5625610351562 977 739.125 977 ZM0 0 L0 1125 L1480 1125 L1480 0 Z" />
      </clipPath>
    </defs>
    <g text-rendering="optimizeLegibility" font-size="84" shape-rendering="geometricPrecision" font-family="&apos;Arial&apos;">
      <text xml:space="preserve" x="472" y="556" clip-path="url(#clipPath1)" stroke="none">H
      </text>
      <text xml:space="preserve" x="472" y="632" clip-path="url(#clipPath1)" stroke="none">N
      </text>
      <text xml:space="preserve" x="5" y="912" clip-path="url(#clipPath1)" stroke="none">I
      </text>
      <text xml:space="preserve" x="234" y="492" clip-path="url(#clipPath1)" stroke="none">F
      </text>
      <text xml:space="preserve" x="477" y="912" clip-path="url(#clipPath1)" stroke="none">F
      </text>
      <text xml:space="preserve" x="720" y="1053" clip-path="url(#clipPath1)" stroke="none">F
      </text>
      <text xml:space="preserve" x="591" y="421" clip-path="url(#clipPath1)" stroke="none">O
      </text>
      <text xml:space="preserve" x="836" y="421" clip-path="url(#clipPath1)" stroke="none">N
      </text>
      <text xml:space="preserve" x="1182" y="385" clip-path="url(#clipPath1)" stroke="none">HN
      </text>
      <text xml:space="preserve" x="909" y="187" clip-path="url(#clipPath1)" stroke="none">HO
      </text>
      <text xml:space="preserve" x="1107" y="150" clip-path="url(#clipPath1)" stroke="none">H
      </text>
      <line stroke-linecap="round" clip-path="url(#clipPath2)" fill="none" x1="259.3107174131512" x2="137.83817728078236" y1="602.7518429589966" stroke-linejoin="bevel" y2="672.8861040053989" stroke-width="5.4648871421813965" />
      <line stroke-linecap="round" clip-path="url(#clipPath2)" fill="none" x1="259.3107174131512" x2="163.08595578802948" y1="631.9056801991927" stroke-linejoin="bevel" y2="687.4627019227041" stroke-width="5.4648871421813965" />
      <line stroke-linecap="round" clip-path="url(#clipPath2)" fill="none" x1="259.3107174131512" x2="380.7832575455201" y1="602.7518429589966" stroke-linejoin="bevel" y2="672.8861040053989" stroke-width="5.4648871421813965" />
      <line stroke-linecap="round" clip-path="url(#clipPath2)" fill="none" x1="137.83817728078236" x2="137.83817728078236" y1="672.8861040053989" stroke-linejoin="bevel" y2="813.1546260982036" stroke-width="5.4648871421813965" />
      <line stroke-linecap="round" clip-path="url(#clipPath2)" fill="none" x1="137.83817728078236" x2="259.3107174131512" y1="813.1546260982036" stroke-linejoin="bevel" y2="883.288887144606" stroke-width="5.4648871421813965" />
      <line stroke-linecap="round" clip-path="url(#clipPath2)" fill="none" x1="163.08595578802948" x2="259.3107174131512" y1="798.5780281808984" stroke-linejoin="bevel" y2="854.1350499044098" stroke-width="5.4648871421813965" />
      <line stroke-linecap="round" clip-path="url(#clipPath2)" fill="none" x1="259.3107174131512" x2="380.7832575455201" y1="883.288887144606" stroke-linejoin="bevel" y2="813.1546260982036" stroke-width="5.4648871421813965" />
      <line stroke-linecap="round" clip-path="url(#clipPath2)" fill="none" x1="380.7832575455201" x2="380.7832575455201" y1="813.1546260982036" stroke-linejoin="bevel" y2="672.8861040053989" stroke-width="5.4648871421813965" />
      <line stroke-linecap="round" clip-path="url(#clipPath2)" fill="none" x1="355.53547903827297" x2="355.53547903827297" y1="798.5780281808984" stroke-linejoin="bevel" y2="687.4627019227041" stroke-width="5.4648871421813965" />
      <line stroke-linecap="round" clip-path="url(#clipPath2)" fill="none" x1="380.7832575455201" x2="468.57652647975004" y1="672.8861040053989" stroke-linejoin="bevel" y2="622.1993799939071" stroke-width="5.4648871421813965" />
      <line stroke-linecap="round" clip-path="url(#clipPath2)" fill="none" x1="535.9376179052443" x2="623.7305649219688" y1="622.1995939019439" stroke-linejoin="bevel" y2="672.8868754950003" stroke-width="5.4648871421813965" />
      <line stroke-linecap="round" clip-path="url(#clipPath2)" fill="none" x1="623.7323465976182" x2="745.2084500812858" y1="813.1523116350576" stroke-linejoin="bevel" y2="883.2865726814598" stroke-width="5.4648871421813965" />
      <line stroke-linecap="round" clip-path="url(#clipPath2)" fill="none" x1="745.2084500812858" x2="866.6827718893041" y1="883.2865726814598" stroke-linejoin="bevel" y2="813.1553975878048" stroke-width="5.4648871421813965" />
      <line stroke-linecap="round" clip-path="url(#clipPath2)" fill="none" x1="745.2086352377718" x2="841.4348082214975" y1="854.1330561464085" stroke-linejoin="bevel" y2="798.5784789677068" stroke-width="5.4648871421813965" />
      <line stroke-linecap="round" clip-path="url(#clipPath2)" fill="none" x1="866.6827718893041" x2="866.6809902136547" y1="813.1553975878048" stroke-linejoin="bevel" y2="672.8899614477475" stroke-width="5.4648871421813965" />
      <line stroke-linecap="round" clip-path="url(#clipPath2)" fill="none" x1="866.6809902136547" x2="745.204886729987" y1="672.8899614477475" stroke-linejoin="bevel" y2="602.7557004013452" stroke-width="5.4648871421813965" />
      <line stroke-linecap="round" clip-path="url(#clipPath2)" fill="none" x1="841.4333968628935" x2="745.2047015735011" y1="687.4668800654937" stroke-linejoin="bevel" y2="631.9092169363965" stroke-width="5.4648871421813965" />
      <line stroke-linecap="round" clip-path="url(#clipPath2)" fill="none" x1="623.7305649219688" x2="623.7323465976182" y1="672.8868754950003" stroke-linejoin="bevel" y2="813.1523116350576" stroke-width="5.4648871421813965" />
      <line stroke-linecap="round" clip-path="url(#clipPath2)" fill="none" x1="648.978343429216" x2="648.9801251048652" y1="687.4641148178912" stroke-linejoin="bevel" y2="798.5757137177524" stroke-width="5.4648871421813965" />
      <line stroke-linecap="round" clip-path="url(#clipPath2)" fill="none" x1="623.7305649219688" x2="745.204886729987" y1="672.8868754950003" stroke-linejoin="bevel" y2="602.7557004013452" stroke-width="5.4648871421813965" />
      <line stroke-linecap="round" clip-path="url(#clipPath2)" fill="none" x1="137.83817728078236" x2="50.044908346552404" y1="813.1546260982036" stroke-linejoin="bevel" y2="863.8413501096956" stroke-width="5.4648871421813965" />
      <line stroke-linecap="round" clip-path="url(#clipPath2)" fill="none" x1="259.3107174131512" x2="259.3107174131512" y1="602.7518429589966" stroke-linejoin="bevel" y2="501.37727977288387" stroke-width="5.4648871421813965" />
      <line stroke-linecap="round" clip-path="url(#clipPath2)" fill="none" x1="623.7323465976182" x2="535.9393995808938" y1="813.1523116350576" stroke-linejoin="bevel" y2="863.839593228114" stroke-width="5.4648871421813965" />
      <line stroke-linecap="round" clip-path="url(#clipPath2)" fill="none" x1="745.2084500812858" x2="745.2078062427336" y1="883.2865726814598" stroke-linejoin="bevel" y2="984.6611358655281" stroke-width="5.4648871421813965" />
      <line stroke-linecap="round" clip-path="url(#clipPath2)" fill="none" x1="745.204886729987" x2="745.2057775678118" y1="602.7557004013452" stroke-linejoin="bevel" y2="462.49026425280124" stroke-width="5.4648871421813965" />
      <line stroke-linecap="round" clip-path="url(#clipPath2)" fill="none" x1="745.2056849892292" x2="651.1011384115128" y1="477.06707597010643" stroke-linejoin="bevel" y2="422.73499378050167" stroke-width="5.4648871421813965" />
      <line stroke-linecap="round" clip-path="url(#clipPath2)" fill="none" x1="757.829713110472" x2="663.7251665327555" y1="455.20193856955296" stroke-linejoin="bevel" y2="400.86985637994815" stroke-width="5.4648871421813965" />
      <line stroke-linecap="round" clip-path="url(#clipPath2)" fill="none" x1="745.2057775678118" x2="832.9990465020417" y1="462.49026425280124" stroke-linejoin="bevel" y2="411.8035402413093" stroke-width="5.4648871421813965" />
      <line stroke-linecap="round" clip-path="url(#clipPath2)" fill="none" x1="1002.1654307100512" x2="1038.4696574381678" y1="428.66254439483276" stroke-linejoin="bevel" y2="293.176767649049" stroke-width="5.4648871421813965" />
      <line stroke-linecap="round" clip-path="url(#clipPath2)" fill="none" x1="1038.4696574381678" x2="902.983880692384" y1="293.176767649049" stroke-linejoin="bevel" y2="256.87254092093235" stroke-width="5.4648871421813965" />
      <line stroke-linecap="round" clip-path="url(#clipPath2)" fill="none" x1="904.2452886394659" x2="1002.1654307100512" y1="402.4242548535614" stroke-linejoin="bevel" y2="428.66254439483276" stroke-width="5.4648871421813965" />
      <line stroke-linecap="round" clip-path="url(#clipPath2)" fill="none" x1="902.983880692384" x2="876.7455911511126" y1="256.87254092093235" stroke-linejoin="bevel" y2="354.7926829915175" stroke-width="5.4648871421813965" />
      <line stroke-linecap="round" clip-path="url(#clipPath2)" fill="none" x1="1038.4696574381678" x2="1173.9556647524792" y1="293.176767649049" stroke-linejoin="bevel" y2="256.873401403462" stroke-width="5.4648871421813965" />
      <line stroke-linecap="round" clip-path="url(#clipPath2)" fill="none" x1="1310.705264252208" x2="1408.6285537529748" y1="345.98908402517964" stroke-linejoin="bevel" y2="319.75061768325025" stroke-width="5.4648871421813965" />
      <line stroke-linecap="round" clip-path="url(#clipPath2)" fill="none" x1="1408.6285537529748" x2="1444.9336409621567" y1="319.75061768325025" stroke-linejoin="bevel" y2="184.26507151145898" stroke-width="5.4648871421813965" />
      <line stroke-linecap="round" clip-path="url(#clipPath2)" fill="none" x1="1444.9336409621567" x2="1345.7497400665002" y1="184.26507151145898" stroke-linejoin="bevel" y2="85.08369028566938" stroke-width="5.4648871421813965" />
      <line stroke-linecap="round" clip-path="url(#clipPath2)" fill="none" x1="1345.7497400665002" x2="1210.2607519616613" y1="85.08369028566938" stroke-linejoin="bevel" y2="121.38785523167093" stroke-width="5.4648871421813965" />
      <line stroke-linecap="round" clip-path="url(#clipPath2)" fill="none" x1="1173.9556647524792" x2="1245.6392163406335" y1="256.873401403462" stroke-linejoin="bevel" y2="328.5551319411911" stroke-width="5.4648871421813965" />
      <line stroke-linecap="round" clip-path="url(#clipPath2)" fill="none" x1="1173.9556647524792" x2="1210.2607519616613" y1="256.873401403462" stroke-linejoin="bevel" y2="121.38785523167093" stroke-width="5.4648871421813965" />
      <line stroke-linecap="round" clip-path="url(#clipPath2)" fill="none" x1="1038.4696574381678" x2="1012.2319897966529" y1="293.176767649049" stroke-linejoin="bevel" y2="195.2564589388096" stroke-width="5.4648871421813965" />
      <path d="M1171.3162841796875 257.5805969238281 L1176.594970703125 256.16619873046875 L1157.87939453125 156.2303466796875 L1137.5565185546875 161.67584228515625" clip-path="url(#clipPath2)" stroke="none" />
    </g>
  </g>
</svg>
