<?xml version="1.0" encoding="UTF-8" standalone="no"?>
<svg
   xmlns:dc="http://purl.org/dc/elements/1.1/"
   xmlns:cc="http://creativecommons.org/ns#"
   xmlns:rdf="http://www.w3.org/1999/02/22-rdf-syntax-ns#"
   xmlns:svg="http://www.w3.org/2000/svg"
   xmlns="http://www.w3.org/2000/svg"
   xmlns:sodipodi="http://sodipodi.sourceforge.net/DTD/sodipodi-0.dtd"
   xmlns:inkscape="http://www.inkscape.org/namespaces/inkscape"
   viewBox="88.35 138.74 160.96 104.21"
   preserveAspectRatio="xMidYMid"
   width="100%"
   height="100%"
   id="svg2"
   version="1.1"
   inkscape:version="0.48.1 "
   sodipodi:docname="AEE788.svg">
  <metadata
     id="metadata219">
    <rdf:RDF>
      <cc:Work
         rdf:about="">
        <dc:format>image/svg+xml</dc:format>
        <dc:type
           rdf:resource="http://purl.org/dc/dcmitype/StillImage" />
      </cc:Work>
    </rdf:RDF>
  </metadata>
  <defs
     id="defs217" />
  <sodipodi:namedview
     pagecolor="#ffffff"
     bordercolor="#666666"
     borderopacity="1"
     objecttolerance="10"
     gridtolerance="10"
     guidetolerance="10"
     inkscape:pageopacity="0"
     inkscape:pageshadow="2"
     inkscape:window-width="640"
     inkscape:window-height="480"
     id="namedview215"
     showgrid="false"
     inkscape:zoom="2.4757701"
     inkscape:cx="80.48"
     inkscape:cy="52.105"
     inkscape:window-x="0"
     inkscape:window-y="0"
     inkscape:window-maximized="0"
     inkscape:current-layer="svg2" />
  <clipPath
     id="367">
    <rect
       x="0.3"
       y="0.3"
       width="539.4"
       height="719.15"
       id="rect5" />
  </clipPath>
  <g
     id="drawing"
     transform="matrix(0.95736434,0,0,0.95736434,7.7668608,7.9152728)">
    <path
       style="fill:#ffffff;fill-opacity:0"
       d="m 88.349998,138.74001 160.960012,0 0,104.20999 -160.960012,0 z"
       id="rect8"
       inkscape:connector-curvature="0" />
    <g
       id="page"
       clip-path="url(#367)">
      <g
         id="g11">
        <g
           style="text-anchor:start"
           id="text13">
          <path
             d="m 98.701721,174.27 0,-7.1582 0.97168,0 3.759769,5.62012 0,-5.62012 0.9082,0 0,7.1582 -0.97168,0 -3.759766,-5.625 0,5.625 z"
             style="font-size:10px;fill:#000000;font-family:Arial"
             id="path3198"
             inkscape:connector-curvature="0" />
        </g>
      </g>
      <g
         id="g17">
        <g
           style="text-anchor:start"
           id="text19">
          <path
             d="m 111.17172,152.67999 0,-7.1582 0.97168,0 3.75977,5.62012 0,-5.62012 0.9082,0 0,7.1582 -0.97168,0 -3.75976,-5.625 0,5.625 z"
             style="font-size:10px;fill:#000000;font-family:Arial"
             id="path3201"
             inkscape:connector-curvature="0" />
        </g>
      </g>
      <g
         id="Solid">
        <path
           d="m 101.23,156.13 0,0 0.3,0.17 0.3,0.17 0,9.13 -0.3,0 -0.3,0 z"
           shape-rendering="geometricPrecision"
           id="path24"
           inkscape:connector-curvature="0"
           style="fill:#000000;fill-rule:evenodd;stroke:#000000;stroke-width:0;stroke-linejoin:miter" />
        <path
           style="stroke:#000000;stroke-width:0.60000002"
           d="m 104.12,157.8 0,7.80001"
           id="line26"
           inkscape:connector-curvature="0" />
      </g>
      <g
         id="g28">
        <path
           d="m 105.64,173.42 0,0 0.15,-0.26 0.15,-0.26 8.06,4.65 0,0.35 -0.3,0.17 z"
           shape-rendering="geometricPrecision"
           id="path30"
           inkscape:connector-curvature="0"
           style="fill:#000000;fill-rule:evenodd;stroke:#000000;stroke-width:0;stroke-linejoin:miter" />
      </g>
      <g
         id="g32">
        <path
           d="m 114.3,178.07 0,0 -0.3,-0.17 0,-0.35 12.17,-7.02 0.3,0.17 0.03,0.33 z"
           shape-rendering="geometricPrecision"
           id="path34"
           inkscape:connector-curvature="0"
           style="fill:#000000;fill-rule:evenodd;stroke:#000000;stroke-width:0;stroke-linejoin:miter" />
        <path
           style="stroke:#000000;stroke-width:0.60000002"
           d="m 114,174.91 9.88,-5.71"
           id="line36"
           inkscape:connector-curvature="0" />
      </g>
      <g
         id="g38">
        <path
           d="m 126.77,170.48 0,0 -0.3,0.22 -0.3,-0.17 0,-14.06 0.3,-0.17 0.3,0.22 z"
           shape-rendering="geometricPrecision"
           id="path40"
           inkscape:connector-curvature="0"
           style="fill:#000000;fill-rule:evenodd;stroke:#000000;stroke-width:0;stroke-linejoin:miter" />
      </g>
      <g
         id="g42">
        <path
           d="m 126.5,155.97 0,0 -0.03,0.33 -0.3,0.17 -8.03,-4.64 0.15,-0.26 0.15,-0.26 z"
           shape-rendering="geometricPrecision"
           id="path44"
           inkscape:connector-curvature="0"
           style="fill:#000000;fill-rule:evenodd;stroke:#000000;stroke-width:0;stroke-linejoin:miter" />
        <path
           style="stroke:#000000;stroke-width:0.60000002"
           d="m 123.88,157.8 -6.89,-3.97999"
           id="line46"
           inkscape:connector-curvature="0" />
      </g>
      <g
         id="g48">
        <path
           d="m 109.66,151.26 0,0 0.15,0.26 0.15,0.26 -8.13,4.69 -0.3,-0.17 -0.3,-0.17 z"
           shape-rendering="geometricPrecision"
           id="path50"
           inkscape:connector-curvature="0"
           style="fill:#000000;fill-rule:evenodd;stroke:#000000;stroke-width:0;stroke-linejoin:miter" />
      </g>
      <g
         id="g52">
        <g
           style="text-anchor:start"
           id="text54">
          <path
             d="m 137.37079,147.08 0,-7.1582 0.94726,0 0,2.93945 3.72071,0 0,-2.93945 0.94726,0 0,7.1582 -0.94726,0 0,-3.37402 -3.72071,0 0,3.37402 z"
             style="font-size:10px;fill:#000000;font-family:Arial"
             id="path3207"
             inkscape:connector-curvature="0" />
          <path
             d="m 137.33173,157.27 0,-7.1582 0.97168,0 3.75976,5.62012 0,-5.62012 0.9082,0 0,7.1582 -0.97168,0 -3.75976,-5.625 0,5.625 z"
             style="font-size:10px;fill:#000000;font-family:Arial"
             id="path3209"
             inkscape:connector-curvature="0" />
        </g>
      </g>
      <g
         id="g60">
        <path
           d="m 126.5,171.03 0,0 -0.03,-0.33 0.3,-0.22 13.29,4.32 0.11,0.35 0.11,0.35 z"
           shape-rendering="geometricPrecision"
           id="path62"
           inkscape:connector-curvature="0"
           style="fill:#000000;fill-rule:evenodd;stroke:#000000;stroke-width:0;stroke-linejoin:miter" />
      </g>
      <g
         id="g64">
        <path
           d="m 140.28,175.5 0,0 -0.11,-0.35 -0.11,-0.35 8.2,-11.3 0.37,0 0.15,0.3 z"
           shape-rendering="geometricPrecision"
           id="path66"
           inkscape:connector-curvature="0"
           style="fill:#000000;fill-rule:evenodd;stroke:#000000;stroke-width:0;stroke-linejoin:miter" />
        <path
           style="stroke:#000000;stroke-width:0.60000002"
           d="m 139.17999,172.10001 6.25,-8.60001"
           id="line68"
           inkscape:connector-curvature="0" />
      </g>
      <g
         id="g70">
        <path
           d="m 148.78,163.2 0,0 -0.15,0.3 -0.37,0 -4.56,-6.28 0.24,-0.18 0.24,-0.17 z"
           shape-rendering="geometricPrecision"
           id="path72"
           inkscape:connector-curvature="0"
           style="fill:#000000;fill-rule:evenodd;stroke:#000000;stroke-width:0;stroke-linejoin:miter" />
      </g>
      <g
         id="g74">
        <path
           d="m 135.79,152.96 0,0 0.09,0.28 0.09,0.29 -9.2,2.99 -0.3,-0.22 0.03,-0.33 z"
           shape-rendering="geometricPrecision"
           id="path76"
           inkscape:connector-curvature="0"
           style="fill:#000000;fill-rule:evenodd;stroke:#000000;stroke-width:0;stroke-linejoin:miter" />
      </g>
      <g
         id="g78">
        <path
           d="m 148.78,163.8 0,0 -0.15,-0.3 0.15,-0.3 14.03,0 0.17,0.3 -0.17,0.3 z"
           shape-rendering="geometricPrecision"
           id="path80"
           inkscape:connector-curvature="0"
           style="fill:#000000;fill-rule:evenodd;stroke:#000000;stroke-width:0;stroke-linejoin:miter" />
      </g>
      <g
         id="g82">
        <path
           d="m 162.81,163.8 0,0 0.17,-0.3 0.35,0 7.02,12.17 -0.17,0.3 -0.17,0.3 z"
           shape-rendering="geometricPrecision"
           id="path84"
           inkscape:connector-curvature="0"
           style="fill:#000000;fill-rule:evenodd;stroke:#000000;stroke-width:0;stroke-linejoin:miter" />
        <path
           style="stroke:#000000;stroke-width:0.60000002"
           d="m 165.97,163.5 5.70999,9.88"
           id="line86"
           inkscape:connector-curvature="0" />
      </g>
      <g
         id="g88">
        <path
           d="m 170.01,176.27 0,0 0.17,-0.3 0.17,-0.3 14.06,0 0.17,0.3 0.17,0.3 z"
           shape-rendering="geometricPrecision"
           id="path90"
           inkscape:connector-curvature="0"
           style="fill:#000000;fill-rule:evenodd;stroke:#000000;stroke-width:0;stroke-linejoin:miter" />
      </g>
      <g
         id="g92">
        <path
           d="m 184.75,176.27 0,0 -0.17,-0.3 -0.17,-0.3 7.02,-12.17 0.35,0 0.17,0.3 z"
           shape-rendering="geometricPrecision"
           id="path94"
           inkscape:connector-curvature="0"
           style="fill:#000000;fill-rule:evenodd;stroke:#000000;stroke-width:0;stroke-linejoin:miter" />
        <path
           style="stroke:#000000;stroke-width:0.60000002"
           d="m 183.08,173.38 5.70999,-9.88"
           id="line96"
           inkscape:connector-curvature="0" />
      </g>
      <g
         id="g98">
        <path
           d="m 191.95,163.2 0,0 -0.17,0.3 -0.35,0 -7.02,-12.17 0.17,-0.3 0.17,-0.3 z"
           shape-rendering="geometricPrecision"
           id="path100"
           inkscape:connector-curvature="0"
           style="fill:#000000;fill-rule:evenodd;stroke:#000000;stroke-width:0;stroke-linejoin:miter" />
      </g>
      <g
         id="g102">
        <path
           d="m 184.75,150.73 0,0 -0.17,0.3 -0.17,0.3 -14.06,0 -0.17,-0.3 -0.17,-0.3 z"
           shape-rendering="geometricPrecision"
           id="path104"
           inkscape:connector-curvature="0"
           style="fill:#000000;fill-rule:evenodd;stroke:#000000;stroke-width:0;stroke-linejoin:miter" />
        <path
           style="stroke:#000000;stroke-width:0.60000002"
           d="m 183.08,153.62 -11.40001,0"
           id="line106"
           inkscape:connector-curvature="0" />
      </g>
      <g
         id="g108">
        <path
           d="m 170.01,150.73 0,0 0.17,0.3 0.17,0.3 -7.02,12.17 -0.35,0 -0.17,-0.3 z"
           shape-rendering="geometricPrecision"
           id="path110"
           inkscape:connector-curvature="0"
           style="fill:#000000;fill-rule:evenodd;stroke:#000000;stroke-width:0;stroke-linejoin:miter" />
      </g>
      <g
         id="g112">
        <path
           d="m 191.95,163.8 0,0 -0.17,-0.3 0.17,-0.3 14.35,0 -0.17,0.3 -0.17,0.3 z"
           shape-rendering="geometricPrecision"
           id="path114"
           inkscape:connector-curvature="0"
           style="fill:#000000;fill-rule:evenodd;stroke:#000000;stroke-width:0;stroke-linejoin:miter" />
      </g>
      <g
         id="g116">
        <g
           style="text-anchor:start"
           id="text118">
          <path
             d="m 210.50172,179.55 0,-7.1582 0.97168,0 3.75977,5.62012 0,-5.62012 0.9082,0 0,7.1582 -0.97168,0 -3.75976,-5.625 0,5.625 z"
             style="font-size:10px;fill:#000000;font-family:Arial"
             id="path3216"
             inkscape:connector-curvature="0" />
        </g>
      </g>
      <g
         id="g122">
        <path
           d="m 205.96,163.8 0,0 0.17,-0.3 0.17,-0.3 4.43,7.66 -0.26,0.15 -0.26,0.15 z"
           shape-rendering="geometricPrecision"
           id="path124"
           inkscape:connector-curvature="0"
           style="fill:#000000;fill-rule:evenodd;stroke:#000000;stroke-width:0;stroke-linejoin:miter" />
      </g>
      <g
         id="g126">
        <g
           style="text-anchor:start"
           id="text128">
          <path
             d="m 224.90172,204.49001 0,-7.15821 0.97168,0 3.75976,5.62012 0,-5.62012 0.90821,0 0,7.15821 -0.97168,0 -3.75977,-5.625 0,5.625 z"
             style="font-size:10px;fill:#000000;font-family:Arial"
             id="path3219"
             inkscape:connector-curvature="0" />
        </g>
      </g>
      <g
         id="g132">
        <path
           d="m 210.17,180.84 0,0 0.26,0.15 0.26,0.15 -4.21,7.3 -0.35,0 -0.35,0 z"
           shape-rendering="geometricPrecision"
           id="path134"
           inkscape:connector-curvature="0"
           style="fill:#000000;fill-rule:evenodd;stroke:#000000;stroke-width:0;stroke-linejoin:miter" />
      </g>
      <g
         id="g136">
        <path
           d="m 205.78,188.44 0,0 0.35,0 0.35,0 7.02,12.17 -0.17,0.3 -0.17,0.3 z"
           shape-rendering="geometricPrecision"
           id="path138"
           inkscape:connector-curvature="0"
           style="fill:#000000;fill-rule:evenodd;stroke:#000000;stroke-width:0;stroke-linejoin:miter" />
      </g>
      <g
         id="g140">
        <path
           d="m 213.16,201.21 0,0 0.17,-0.3 0.17,-0.3 9.8,0 0,0.3 0,0.3 z"
           shape-rendering="geometricPrecision"
           id="path142"
           inkscape:connector-curvature="0"
           style="fill:#000000;fill-rule:evenodd;stroke:#000000;stroke-width:0;stroke-linejoin:miter" />
      </g>
      <g
         id="g144">
        <path
           d="m 230.82,196.16 0,0 -0.26,-0.15 -0.26,-0.15 4.28,-7.42 0.35,0 0.35,0 z"
           shape-rendering="geometricPrecision"
           id="path146"
           inkscape:connector-curvature="0"
           style="fill:#000000;fill-rule:evenodd;stroke:#000000;stroke-width:0;stroke-linejoin:miter" />
      </g>
      <g
         id="g148">
        <path
           d="m 235.28,188.44 0,0 -0.35,0 -0.35,0 -7.02,-12.17 0.17,-0.3 0.17,-0.3 z"
           shape-rendering="geometricPrecision"
           id="path150"
           inkscape:connector-curvature="0"
           style="fill:#000000;fill-rule:evenodd;stroke:#000000;stroke-width:0;stroke-linejoin:miter" />
      </g>
      <g
         id="g152">
        <path
           d="m 227.9,175.67 0,0 -0.17,0.3 -0.17,0.3 -9.76,0 0,-0.3 0,-0.3 z"
           shape-rendering="geometricPrecision"
           id="path154"
           inkscape:connector-curvature="0"
           style="fill:#000000;fill-rule:evenodd;stroke:#000000;stroke-width:0;stroke-linejoin:miter" />
      </g>
      <g
         id="g156">
        <path
           d="m 230.34,206.04 0,0 0.26,-0.15 0.26,-0.15 4.22,7.3 -0.17,0.3 -0.17,0.3 z"
           shape-rendering="geometricPrecision"
           id="path158"
           inkscape:connector-curvature="0"
           style="fill:#000000;fill-rule:evenodd;stroke:#000000;stroke-width:0;stroke-linejoin:miter" />
      </g>
      <g
         id="g160">
        <path
           d="m 234.74,213.64 0,0 0.17,-0.3 0.17,-0.3 14.23,0 0,0.3 0,0.3 z"
           shape-rendering="geometricPrecision"
           id="path162"
           inkscape:connector-curvature="0"
           style="fill:#000000;fill-rule:evenodd;stroke:#000000;stroke-width:0;stroke-linejoin:miter" />
      </g>
      <g
         id="g164">
        <g
           style="text-anchor:start"
           id="text166">
          <path
             d="m 111.17172,195.82001 0,-7.15821 0.97168,0 3.75977,5.62012 0,-5.62012 0.9082,0 0,7.15821 -0.97168,0 -3.75976,-5.625 0,5.625 z"
             style="font-size:10px;fill:#000000;font-family:Arial"
             id="path3222"
             inkscape:connector-curvature="0" />
          <path
             d="m 118.43735,195.82001 0,-7.15821 0.94726,0 0,2.93946 3.72071,0 0,-2.93946 0.94726,0 0,7.15821 -0.94726,0 0,-3.37403 -3.72071,0 0,3.37403 z"
             style="font-size:10px;fill:#000000;font-family:Arial"
             id="path3224"
             inkscape:connector-curvature="0" />
        </g>
      </g>
      <g
         id="g170">
        <path
           d="m 113.7,178.07 0,0 0.3,-0.17 0.3,0.17 0,9.03 -0.3,0 -0.3,0 z"
           shape-rendering="geometricPrecision"
           id="path172"
           inkscape:connector-curvature="0"
           style="fill:#000000;fill-rule:evenodd;stroke:#000000;stroke-width:0;stroke-linejoin:miter" />
      </g>
      <g
         id="g174">
        <path
           d="m 109.66,194.41 0,0 0.15,0.26 0.15,0.26 -8.13,4.69 -0.3,-0.17 0.01,-0.35 z"
           shape-rendering="geometricPrecision"
           id="path176"
           inkscape:connector-curvature="0"
           style="fill:#000000;fill-rule:evenodd;stroke:#000000;stroke-width:0;stroke-linejoin:miter" />
      </g>
      <g
         id="g178">
        <path
           d="m 101.23,199.64 0,0 0.3,-0.19 0.3,0.17 0,14.01 -0.3,0.17 -0.3,-0.17 z"
           shape-rendering="geometricPrecision"
           id="path180"
           inkscape:connector-curvature="0"
           style="fill:#000000;fill-rule:evenodd;stroke:#000000;stroke-width:0;stroke-linejoin:miter" />
      </g>
      <g
         id="WedgeBegin">
        <path
           d="m 101.54,199.1 0,0 -0.01,0.35 -0.3,0.19 -12.88,-6.07 0.75,-1.3 0.75,-1.3 z"
           shape-rendering="geometricPrecision"
           id="path183"
           inkscape:connector-curvature="0"
           style="fill:#000000;fill-rule:evenodd;stroke:#000000;stroke-width:0;stroke-linejoin:miter" />
      </g>
      <g
         id="g185">
        <path
           d="m 101.23,213.63 0,0 0.3,0.17 0,0.35 -12.17,7.02 -0.3,-0.17 -0.3,-0.17 z"
           shape-rendering="geometricPrecision"
           id="path187"
           inkscape:connector-curvature="0"
           style="fill:#000000;fill-rule:evenodd;stroke:#000000;stroke-width:0;stroke-linejoin:miter" />
        <path
           style="stroke:#000000;stroke-width:0.60000002"
           d="M 101.53,216.78999 91.650002,222.5"
           id="line189"
           inkscape:connector-curvature="0" />
      </g>
      <g
         id="g191">
        <path
           d="m 88.76,220.83 0,0 0.3,0.17 0.3,0.17 0,14.06 -0.3,0.17 -0.3,0.17 z"
           shape-rendering="geometricPrecision"
           id="path193"
           inkscape:connector-curvature="0"
           style="fill:#000000;fill-rule:evenodd;stroke:#000000;stroke-width:0;stroke-linejoin:miter" />
      </g>
      <g
         id="g195">
        <path
           d="m 88.76,235.57 0,0 0.3,-0.17 0.3,-0.17 12.17,7.02 0,0.35 0,0.35 z"
           shape-rendering="geometricPrecision"
           id="path197"
           inkscape:connector-curvature="0"
           style="fill:#000000;fill-rule:evenodd;stroke:#000000;stroke-width:0;stroke-linejoin:miter" />
        <path
           style="stroke:#000000;stroke-width:0.60000002"
           d="M 91.650002,233.89999 101.53,239.61"
           id="line199"
           inkscape:connector-curvature="0" />
      </g>
      <g
         id="g201">
        <path
           d="m 101.53,242.95 0,0 0,-0.35 0,-0.35 12.17,-7.02 0.3,0.17 0.3,0.17 z"
           shape-rendering="geometricPrecision"
           id="path203"
           inkscape:connector-curvature="0"
           style="fill:#000000;fill-rule:evenodd;stroke:#000000;stroke-width:0;stroke-linejoin:miter" />
      </g>
      <g
         id="g205">
        <path
           d="m 114.3,235.57 0,0 -0.3,-0.17 -0.3,-0.17 0,-14.06 0.3,-0.17 0.3,-0.17 z"
           shape-rendering="geometricPrecision"
           id="path207"
           inkscape:connector-curvature="0"
           style="fill:#000000;fill-rule:evenodd;stroke:#000000;stroke-width:0;stroke-linejoin:miter" />
        <path
           style="stroke:#000000;stroke-width:0.60000002"
           d="m 111.41,233.89999 0,-11.39999"
           id="line209"
           inkscape:connector-curvature="0" />
      </g>
      <g
         id="g211">
        <path
           d="m 114.3,220.83 0,0 -0.3,0.17 -0.3,0.17 -12.17,-7.02 0,-0.35 0.3,-0.17 z"
           shape-rendering="geometricPrecision"
           id="path213"
           inkscape:connector-curvature="0"
           style="fill:#000000;fill-rule:evenodd;stroke:#000000;stroke-width:0;stroke-linejoin:miter" />
      </g>
    </g>
  </g>
</svg>
