<?xml version="1.0" encoding="iso-8859-1"?>
<!-- Generator: Adobe Illustrator 19.1.0, SVG Export Plug-In . SVG Version: 6.00 Build 0)  -->
<svg version="1.1" id="&#x421;&#x43B;&#x43E;&#x439;_1"
	 xmlns="http://www.w3.org/2000/svg" xmlns:xlink="http://www.w3.org/1999/xlink" x="0px" y="0px" viewBox="0 0 776.324 457.512"
	 style="enable-background:new 0 0 776.324 457.512;" xml:space="preserve">
<g>
	<rect x="110.249" y="177.266" transform="matrix(0.809 -0.5878 0.5878 0.809 -79.3693 112.2583)" width="45.628" height="2"/>
	<rect x="93.044" y="103.577" width="45.628" height="2"/>
	<rect x="127.265" y="44.304" transform="matrix(-0.5 -0.866 0.866 -0.5 185.884 197.9288)" width="45.628" height="2"/>
	<rect x="58.823" y="44.304" transform="matrix(0.5 -0.866 0.866 0.5 1.5839 93.352)" width="45.628" height="2"/>
	<rect x="421.843" y="204.594" width="2" height="45.628"/>
	<rect x="481.116" y="238.815" transform="matrix(-0.4996 -0.8663 0.8663 -0.4996 496.3258 809.9746)" width="2" height="45.628"/>
	<path d="M513.241,200.608v-2l0.001-0.577l-0.501-0.289l-49.383-28.511v-1.423V131.05h-2v36.757v1.423l-48.883,28.223l-1.232-0.712
		l-31.358-18.105l-0.999,1.733l32.59,18.816v1.423v53.6v2l-0.001,0.577l0.501,0.289l49.383,28.511v1.423v34.639h2v-34.639v-1.423
		l1.232-0.711l47.651-27.511l32.591,18.816l0.999-1.733l-32.59-18.816V200.608z M511.241,200.608v55.023l-1.232,0.711
		l-47.651,27.511l-47.651-27.511l-1.232-0.711v-1.423v-53.6v-1.423l48.883-28.223l47.651,27.512l1.232,0.711V200.608z"/>
	<rect x="459.302" y="192.187" transform="matrix(0.866 0.5 -0.5 0.866 161.1852 -215.1762)" width="45.628" height="2"/>
	<rect x="495.362" y="74.24" transform="matrix(0.4996 0.8663 -0.8663 0.4996 328.5741 -383.6523)" width="2" height="36.671"/>
	<polygon points="412.475,370.253 363.092,341.741 362.592,341.453 362.092,341.741 312.209,370.541 313.208,372.274 
		362.592,343.763 406.291,368.992 406.291,407.813 408.291,407.813 408.291,370.147 410.243,371.274 411.975,372.274 
		412.475,372.562 412.975,372.274 414.707,371.274 416.659,370.147 416.659,407.813 418.659,407.813 418.659,368.992 
		446.065,353.169 445.066,351.437 	"/>
	<rect x="339.242" y="341.676" transform="matrix(-0.4996 -0.8663 0.8663 -0.4996 191.8779 845.8102)" width="2" height="51.614"/>
	<rect x="561.124" y="305.031" width="2" height="37.577"/>
	<polygon points="663.123,283.141 663.123,283.141 661.89,283.853 660.658,283.141 660.658,283.141 614.239,256.341 
		612.507,255.341 612.007,255.053 611.508,255.341 578.417,274.446 579.416,276.179 612.007,257.362 659.659,284.874 
		661.391,285.874 661.89,286.162 662.39,285.874 664.122,284.874 695.48,266.769 694.481,265.037 	"/>
	<rect x="744.111" y="256.351" transform="matrix(0.4996 -0.8663 0.8663 0.4996 134.2547 783.3143)" width="2" height="38.21"/>
	<rect x="710.773" y="198.608" width="2" height="36.639"/>
	<path d="M264.058,283.142l-1.232,0.712l-47.651-27.511v0l-1.232-0.711v-1.423l0-55.023l32.59-18.816l-0.999-1.733l-32.593,18.818
		l-1.237-0.708l-48.414-27.697l-17.543-53.99l0.778-1.347l0,0l26.8-46.419l0,0l1-1.732l0.288-0.5l-0.288-0.5l-28.8-49.883
		l-0.288-0.5h-0.579h-2h-53.6h-2l-0.577-0.001l-0.289,0.501l-28.8,49.883l-0.288,0.5l0.288,0.5l1,1.732h0l27.578,47.766l-0.48,1.478
		l-10.473,32.231l1.902,0.619l10.866-33.443h1.273h53.6h1.273l17.35,53.399l-1.031,0.749l-44.393,32.253l-29.583-21.494
		l-1.177,1.617l28.554,20.745l1.618,1.176l0.588,0.428l0.588-0.428l1.618-1.176l44.458-32.301l1.174,0.672l48.246,27.601v1.42
		l0,55.6l-0.001,0.577l0.501,0.289l1.732,1l46.419,26.8l1.732,1l0.5,0.288l0.5-0.288l33.09-19.105l-0.999-1.733L264.058,283.142z
		 M144.792,112.713l-0.711,1.232h-1.423h-53.6h-1.423L59.413,65.062l0.712-1.232h0l27.511-47.651h1.423h53.6h1.423l0.711,1.232l0,0
		l26.8,46.419h0l0.712,1.232L144.792,112.713L144.792,112.713z"/>
	<rect x="260.667" y="263.98" transform="matrix(-0.866 0.5 -0.5 -0.866 648.9676 356.0685)" width="32.224" height="2"/>
	<rect x="222.311" y="204.594" width="2" height="45.628"/>
	<rect x="287.388" y="180.426" transform="matrix(-0.4996 0.8663 -0.8663 -0.4996 602.7181 44.9103)" width="2" height="32.224"/>
	<rect x="32.2" y="161.757" transform="matrix(-0.3093 -0.951 0.951 -0.3093 -129.08 269.1273)" width="2" height="39.371"/>
	<polygon points="77.032,177.294 76.856,177.294 61.427,155.165 58.009,155.165 58.009,183.349 61.485,183.349 61.485,161.298 
		61.661,161.298 77.091,183.349 80.509,183.349 80.509,155.165 77.032,155.165 	"/>
	<path d="M462.358,126.534c7.988,0,12.988-5.605,12.988-14.551c0-8.945-5-14.57-12.988-14.57c-7.988,0-12.988,5.625-12.988,14.57
		C449.37,120.929,454.37,126.534,462.358,126.534z M462.358,100.655c5.762,0,9.375,4.375,9.375,11.328
		c0,6.934-3.613,11.309-9.375,11.309c-5.762,0-9.375-4.375-9.375-11.309C452.983,105.03,456.596,100.655,462.358,100.655z"/>
	<polygon points="470.131,350.176 469.956,350.176 454.526,328.047 451.108,328.047 451.108,356.231 454.585,356.231 
		454.585,334.18 454.76,334.18 470.19,356.231 473.608,356.231 473.608,328.047 470.131,328.047 	"/>
	<polygon points="496.592,340.235 481.124,340.235 481.124,328.047 477.608,328.047 477.608,356.231 481.124,356.231 
		481.124,343.399 496.592,343.399 496.592,356.231 500.108,356.231 500.108,328.047 496.592,328.047 	"/>
	<path d="M412.475,414.213c-7.988,0-12.988,5.625-12.988,14.57c0,8.945,5,14.551,12.988,14.551c7.988,0,12.988-5.605,12.988-14.551
		C425.463,419.838,420.463,414.213,412.475,414.213z M412.475,440.092c-5.762,0-9.375-4.375-9.375-11.309
		c0-6.953,3.613-11.328,9.375-11.328c5.762,0,9.375,4.375,9.375,11.328C421.85,435.717,418.237,440.092,412.475,440.092z"/>
	<polygon points="569.898,292.576 569.722,292.576 554.292,270.447 550.874,270.447 550.874,298.631 554.351,298.631 
		554.351,276.58 554.527,276.58 569.956,298.631 573.374,298.631 573.374,270.447 569.898,270.447 	"/>
	<polygon points="719.547,263.776 719.371,263.776 703.941,241.647 700.523,241.647 700.523,269.831 704,269.831 704,247.78 
		704.176,247.78 719.605,269.831 723.023,269.831 723.023,241.647 719.547,241.647 	"/>
	<polygon points="354.818,161.38 354.994,161.38 370.424,183.431 373.842,183.431 373.842,155.247 370.365,155.247 370.365,177.376 
		370.19,177.376 354.76,155.247 351.342,155.247 351.342,183.431 354.818,183.431 	"/>
	<polygon points="354.858,138.415 370.326,138.415 370.326,151.247 373.842,151.247 373.842,123.064 370.326,123.064 
		370.326,135.251 354.858,135.251 354.858,123.064 351.342,123.064 351.342,151.247 354.858,151.247 	"/>
	<polygon points="311.709,200.608 311.709,235.247 313.709,235.247 313.709,199.185 346.299,180.369 345.3,178.637 312.709,197.453 
		311.476,196.742 280.118,178.637 279.119,180.369 311.709,199.185 	"/>
	<polygon points="323.959,269.831 323.959,241.647 320.482,241.647 320.482,263.776 320.307,263.776 304.877,241.647 
		301.459,241.647 301.459,269.831 304.936,269.831 304.936,247.78 305.111,247.78 320.541,269.831 	"/>
	<polygon points="255.052,161.38 255.228,161.38 270.658,183.431 274.076,183.431 274.076,155.247 270.599,155.247 270.599,177.376 
		270.423,177.376 254.994,155.247 251.576,155.247 251.576,183.431 255.052,183.431 	"/>
</g>
</svg>
