<?xml version="1.0" encoding="UTF-8" standalone="no"?>
<svg
   xmlns:dc="http://purl.org/dc/elements/1.1/"
   xmlns:cc="http://creativecommons.org/ns#"
   xmlns:rdf="http://www.w3.org/1999/02/22-rdf-syntax-ns#"
   xmlns:svg="http://www.w3.org/2000/svg"
   xmlns="http://www.w3.org/2000/svg"
   xmlns:sodipodi="http://sodipodi.sourceforge.net/DTD/sodipodi-0.dtd"
   xmlns:inkscape="http://www.inkscape.org/namespaces/inkscape"
   viewBox="102.05 129.25 192.65 137.12"
   preserveAspectRatio="xMidYMid"
   width="100%"
   height="100%"
   id="svg2"
   version="1.1"
   inkscape:version="0.48.1 "
   sodipodi:docname="Intedanib.svg">
  <metadata
     id="metadata278">
    <rdf:RDF>
      <cc:Work
         rdf:about="">
        <dc:format>image/svg+xml</dc:format>
        <dc:type
           rdf:resource="http://purl.org/dc/dcmitype/StillImage" />
      </cc:Work>
    </rdf:RDF>
  </metadata>
  <defs
     id="defs276" />
  <sodipodi:namedview
     pagecolor="#ffffff"
     bordercolor="#666666"
     borderopacity="1"
     objecttolerance="10"
     gridtolerance="10"
     guidetolerance="10"
     inkscape:pageopacity="0"
     inkscape:pageshadow="2"
     inkscape:window-width="640"
     inkscape:window-height="480"
     id="namedview274"
     showgrid="false"
     inkscape:zoom="1.8815636"
     inkscape:cx="96.325"
     inkscape:cy="68.56"
     inkscape:window-x="0"
     inkscape:window-y="0"
     inkscape:window-maximized="0"
     inkscape:current-layer="svg2" />
  <clipPath
     id="131">
    <rect
       x="0.3"
       y="0.3"
       width="539.4"
       height="719.15"
       id="rect5" />
  </clipPath>
  <g
     id="drawing"
     transform="matrix(0.95861877,0,0,0.95861877,8.2229544,7.3485236)">
    <path
       style="fill:#ffffff;fill-opacity:0"
       d="m 102.05,129.25 192.65,0 0,137.12 -192.65,0 z"
       id="rect8"
       inkscape:connector-curvature="0" />
    <g
       id="page"
       clip-path="url(#131)">
      <g
         id="g11">
        <g
           style="text-anchor:start"
           id="text13">
          <path
             d="m 175.45078,146.35001 0,-7.15821 0.94726,0 0,2.93946 3.7207,0 0,-2.93946 0.94727,0 0,7.15821 -0.94727,0 0,-3.37403 -3.7207,0 0,3.37403 z"
             style="font-size:10px;fill:#000000;font-family:Arial"
             id="path3257"
             inkscape:connector-curvature="0" />
          <path
             d="m 175.41171,156.53999 0,-7.1582 0.97168,0 3.75977,5.62012 0,-5.62012 0.9082,0 0,7.1582 -0.97168,0 -3.75976,-5.625 0,5.625 z"
             style="font-size:10px;fill:#000000;font-family:Arial"
             id="path3259"
             inkscape:connector-curvature="0" />
        </g>
      </g>
      <g
         id="g19">
        <g
           style="text-anchor:start"
           id="text21">
          <path
             d="m 123.7134,134.16367 c 0,-1.18815 0.31901,-2.11833 0.95703,-2.79053 0.63802,-0.6722 1.46159,-1.0083 2.47071,-1.0083 0.6608,0 1.2565,0.15788 1.78711,0.47363 0.53059,0.31576 0.93505,0.75603 1.21337,1.3208 0.27832,0.56478 0.41748,1.20525 0.41748,1.92139 0,0.72591 -0.14649,1.37533 -0.43945,1.94824 -0.29297,0.57292 -0.70801,1.00667 -1.24512,1.30127 -0.53711,0.2946 -1.11654,0.44189 -1.73828,0.44189 -0.67383,0 -1.27604,-0.16276 -1.80664,-0.48828 -0.5306,-0.32552 -0.93262,-0.76985 -1.20605,-1.333 -0.27344,-0.56315 -0.41016,-1.15886 -0.41016,-1.78711 z m 0.97656,0.0146 c 0,0.86264 0.23194,1.54216 0.69581,2.03858 0.46386,0.49642 1.04573,0.74463 1.7456,0.74463 0.71289,0 1.29964,-0.25065 1.76025,-0.75196 0.46061,-0.5013 0.69092,-1.21256 0.69092,-2.13378 0,-0.58268 -0.0985,-1.09131 -0.29541,-1.52588 -0.19694,-0.43457 -0.48503,-0.77148 -0.86426,-1.01075 -0.37923,-0.23925 -0.80485,-0.35888 -1.27685,-0.35888 -0.67058,0 -1.24756,0.23031 -1.73096,0.69092 -0.4834,0.46061 -0.7251,1.22965 -0.7251,2.30712 z"
             style="font-size:10px;fill:#000000;font-family:Arial"
             id="path3262"
             inkscape:connector-curvature="0" />
        </g>
      </g>
      <g
         id="g25">
        <g
           style="text-anchor:start"
           id="text27">
          <path
             d="m 111.2434,155.76367 c 0,-1.18814 0.31901,-2.11832 0.95703,-2.79053 0.63802,-0.67219 1.46159,-1.00829 2.4707,-1.0083 0.66081,1e-5 1.25651,0.15789 1.78711,0.47364 0.5306,0.31576 0.93506,0.75602 1.21338,1.3208 0.27832,0.56478 0.41748,1.20524 0.41748,1.92138 0,0.72592 -0.14649,1.37533 -0.43945,1.94825 -0.29297,0.57291 -0.70801,1.00667 -1.24512,1.30127 -0.53711,0.29459 -1.11654,0.44189 -1.73828,0.44189 -0.67383,0 -1.27604,-0.16276 -1.80664,-0.48828 -0.5306,-0.32552 -0.93262,-0.76986 -1.20605,-1.33301 -0.27344,-0.56315 -0.41016,-1.15885 -0.41016,-1.78711 z m 0.97656,0.0147 c 0,0.86263 0.23193,1.54216 0.6958,2.03857 0.46387,0.49642 1.04574,0.74463 1.74561,0.74463 0.71289,0 1.29964,-0.25065 1.76025,-0.75195 0.46061,-0.5013 0.69091,-1.21256 0.69092,-2.13379 -10e-6,-0.58268 -0.0985,-1.0913 -0.29541,-1.52588 -0.19694,-0.43456 -0.48503,-0.77148 -0.86426,-1.01074 -0.37923,-0.23925 -0.80485,-0.35888 -1.27685,-0.35889 -0.67058,1e-5 -1.24756,0.23032 -1.73096,0.69092 -0.4834,0.46062 -0.7251,1.22966 -0.7251,2.30713 z"
             style="font-size:10px;fill:#000000;font-family:Arial"
             id="path3265"
             inkscape:connector-curvature="0" />
        </g>
      </g>
      <g
         id="g31">
        <g
           style="text-anchor:start"
           id="text33">
          <path
             d="m 197.6834,162.96367 c -1e-5,-1.18815 0.319,-2.11832 0.95703,-2.79053 0.63802,-0.67219 1.46158,-1.00829 2.4707,-1.0083 0.6608,1e-5 1.25651,0.15789 1.78711,0.47363 0.53059,0.31577 0.93505,0.75603 1.21338,1.3208 0.27831,0.56479 0.41747,1.20525 0.41748,1.92139 -1e-5,0.72592 -0.14649,1.37533 -0.43945,1.94824 -0.29298,0.57292 -0.70802,1.00668 -1.24512,1.30127 -0.53712,0.2946 -1.11654,0.4419 -1.73828,0.4419 -0.67383,0 -1.27605,-0.16276 -1.80664,-0.48828 -0.5306,-0.32552 -0.93262,-0.76986 -1.20606,-1.33301 -0.27344,-0.56315 -0.41016,-1.15885 -0.41015,-1.78711 z m 0.97656,0.0146 c 0,0.86263 0.23193,1.54215 0.6958,2.03857 0.46386,0.49642 1.04573,0.74463 1.7456,0.74463 0.71289,0 1.29964,-0.25065 1.76026,-0.75195 0.4606,-0.5013 0.69091,-1.21257 0.69092,-2.13379 -1e-5,-0.58268 -0.0985,-1.09131 -0.29541,-1.52588 -0.19695,-0.43457 -0.48504,-0.77148 -0.86426,-1.01074 -0.37924,-0.23925 -0.80486,-0.35888 -1.27686,-0.35889 -0.67057,1e-5 -1.24756,0.23031 -1.73095,0.69092 -0.4834,0.46062 -0.7251,1.22966 -0.7251,2.30713 z"
             style="font-size:10px;fill:#000000;font-family:Arial"
             id="path3268"
             inkscape:connector-curvature="0" />
        </g>
      </g>
      <g
         id="g37">
        <g
           style="text-anchor:start"
           id="text39">
          <path
             d="m 193.95172,194.67999 0,-7.1582 0.97168,0 3.75977,5.62012 0,-5.62012 0.9082,0 0,7.1582 -0.97168,0 -3.75977,-5.625 0,5.625 z"
             style="font-size:10px;fill:#000000;font-family:Arial"
             id="path3271"
             inkscape:connector-curvature="0" />
          <path
             d="m 201.21735,194.67999 0,-7.1582 0.94726,0 0,2.93945 3.7207,0 0,-2.93945 0.94727,0 0,7.1582 -0.94727,0 0,-3.37402 -3.7207,0 0,3.37402 z"
             style="font-size:10px;fill:#000000;font-family:Arial"
             id="path3273"
             inkscape:connector-curvature="0" />
        </g>
      </g>
      <g
         id="g43">
        <g
           style="text-anchor:start"
           id="text45">
          <path
             d="m 211.75172,249.47 0,-7.1582 0.97168,0 3.75977,5.62012 0,-5.62012 0.9082,0 0,7.1582 -0.97168,0 -3.75976,-5.625 0,5.625 z"
             style="font-size:10px;fill:#000000;font-family:Arial"
             id="path3276"
             inkscape:connector-curvature="0" />
        </g>
      </g>
      <g
         id="g49">
        <g
           style="text-anchor:start"
           id="text51">
          <path
             d="m 229.69341,262.76367 c -1e-5,-1.18814 0.319,-2.11832 0.95703,-2.79053 0.63802,-0.67219 1.46158,-1.00829 2.4707,-1.0083 0.6608,1e-5 1.2565,0.15789 1.78711,0.47364 0.53059,0.31576 0.93505,0.75602 1.21338,1.3208 0.27831,0.56478 0.41747,1.20524 0.41748,1.92138 -1e-5,0.72592 -0.14649,1.37533 -0.43945,1.94825 -0.29298,0.57291 -0.70802,1.00667 -1.24512,1.30127 -0.53712,0.29459 -1.11654,0.44189 -1.73828,0.44189 -0.67383,0 -1.27605,-0.16276 -1.80664,-0.48828 -0.5306,-0.32552 -0.93262,-0.76986 -1.20606,-1.33301 -0.27344,-0.56315 -0.41016,-1.15885 -0.41015,-1.78711 z m 0.97656,0.0147 c 0,0.86263 0.23193,1.54216 0.6958,2.03857 0.46386,0.49642 1.04573,0.74463 1.7456,0.74463 0.71289,0 1.29964,-0.25065 1.76026,-0.75195 0.4606,-0.5013 0.69091,-1.21256 0.69092,-2.13379 -10e-6,-0.58268 -0.0985,-1.0913 -0.29541,-1.52588 -0.19695,-0.43456 -0.48504,-0.77148 -0.86426,-1.01074 -0.37924,-0.23925 -0.80486,-0.35888 -1.27686,-0.35889 -0.67057,10e-6 -1.24756,0.23032 -1.73095,0.69092 -0.4834,0.46062 -0.7251,1.22966 -0.7251,2.30713 z"
             style="font-size:10px;fill:#000000;font-family:Arial"
             id="path3279"
             inkscape:connector-curvature="0" />
        </g>
      </g>
      <g
         id="g55">
        <g
           style="text-anchor:start"
           id="text57">
          <path
             d="m 249.55171,244.75 0,-7.1582 0.97168,0 3.75977,5.62011 0,-5.62011 0.9082,0 0,7.1582 -0.97168,0 -3.75976,-5.625 0,5.625 z"
             style="font-size:10px;fill:#000000;font-family:Arial"
             id="path3282"
             inkscape:connector-curvature="0" />
        </g>
      </g>
      <g
         id="g61">
        <g
           style="text-anchor:start"
           id="text63">
          <path
             d="m 277.72171,250.74001 0,-7.15821 0.97168,0 3.75977,5.62012 0,-5.62012 0.9082,0 0,7.15821 -0.97168,0 -3.75977,-5.625 0,5.625 z"
             style="font-size:10px;fill:#000000;font-family:Arial"
             id="path3285"
             inkscape:connector-curvature="0" />
        </g>
      </g>
      <g
         id="Solid">
        <path
           d="m 181.8,156.52 0,0 0.24,-0.18 0.24,-0.18 4.8,6.61 -0.37,0 -0.37,0 z"
           shape-rendering="geometricPrecision"
           id="path68"
           inkscape:connector-curvature="0"
           style="fill:#000000;fill-rule:evenodd;stroke:#000000;stroke-width:0;stroke-linejoin:miter" />
      </g>
      <g
         id="g70">
        <path
           d="m 186.34,162.77 0,0 0.37,0 0.37,0 -8.5,11.7 -0.33,-0.05 -0.11,-0.35 z"
           shape-rendering="geometricPrecision"
           id="path72"
           inkscape:connector-curvature="0"
           style="fill:#000000;fill-rule:evenodd;stroke:#000000;stroke-width:0;stroke-linejoin:miter" />
      </g>
      <g
         id="g74">
        <path
           d="m 178.14,174.07 0,0 0.11,0.35 -0.24,0.24 -13.43,-4.36 -0.03,-0.33 0.3,-0.22 z"
           shape-rendering="geometricPrecision"
           id="path76"
           inkscape:connector-curvature="0"
           style="fill:#000000;fill-rule:evenodd;stroke:#000000;stroke-width:0;stroke-linejoin:miter" />
      </g>
      <g
         id="g78">
        <path
           d="m 164.25,169.8 0,0 0.3,0.17 0.03,0.33 -12.5,7.22 0,-0.35 0,-0.35 z"
           shape-rendering="geometricPrecision"
           id="path80"
           inkscape:connector-curvature="0"
           style="fill:#000000;fill-rule:evenodd;stroke:#000000;stroke-width:0;stroke-linejoin:miter" />
      </g>
      <g
         id="g82">
        <path
           d="m 152.08,176.82 0,0 0,0.35 0,0.35 -12.77,-7.38 0.3,-0.17 0.3,-0.17 z"
           shape-rendering="geometricPrecision"
           id="path84"
           inkscape:connector-curvature="0"
           style="fill:#000000;fill-rule:evenodd;stroke:#000000;stroke-width:0;stroke-linejoin:miter" />
        <path
           style="stroke:#000000;stroke-width:0.60000002"
           d="M 152.08,174.17999 142.2,168.47"
           id="line86"
           inkscape:connector-curvature="0" />
      </g>
      <g
         id="g88">
        <path
           d="m 139.91,169.8 0,0 -0.3,0.17 -0.3,0.17 0,-14.4 0.3,-0.17 0.3,0.17 z"
           shape-rendering="geometricPrecision"
           id="path90"
           inkscape:connector-curvature="0"
           style="fill:#000000;fill-rule:evenodd;stroke:#000000;stroke-width:0;stroke-linejoin:miter" />
      </g>
      <g
         id="g92">
        <path
           d="m 139.91,155.74 0,0 -0.3,-0.17 0,-0.35 12.47,-7.2 0,0.35 0,0.35 z"
           shape-rendering="geometricPrecision"
           id="path94"
           inkscape:connector-curvature="0"
           style="fill:#000000;fill-rule:evenodd;stroke:#000000;stroke-width:0;stroke-linejoin:miter" />
        <path
           style="stroke:#000000;stroke-width:0.60000002"
           d="M 142.2,157.07001 152.08,151.36"
           id="line96"
           inkscape:connector-curvature="0" />
      </g>
      <g
         id="g98">
        <path
           d="m 152.08,148.72 0,0 0,-0.35 0,-0.35 12.5,7.22 -0.03,0.33 -0.3,0.17 z"
           shape-rendering="geometricPrecision"
           id="path100"
           inkscape:connector-curvature="0"
           style="fill:#000000;fill-rule:evenodd;stroke:#000000;stroke-width:0;stroke-linejoin:miter" />
      </g>
      <g
         id="g102">
        <path
           d="m 173.89,152.22 0,0 0.09,0.29 0.09,0.28 -9.22,3 -0.3,-0.22 0.03,-0.33 z"
           shape-rendering="geometricPrecision"
           id="path104"
           inkscape:connector-curvature="0"
           style="fill:#000000;fill-rule:evenodd;stroke:#000000;stroke-width:0;stroke-linejoin:miter" />
      </g>
      <g
         id="g106">
        <path
           d="m 164.85,169.75 0,0 -0.3,0.22 -0.3,-0.17 0,-14.06 0.3,-0.17 0.3,0.22 z"
           shape-rendering="geometricPrecision"
           id="path108"
           inkscape:connector-curvature="0"
           style="fill:#000000;fill-rule:evenodd;stroke:#000000;stroke-width:0;stroke-linejoin:miter" />
        <path
           style="stroke:#000000;stroke-width:0.60000002"
           d="m 161.96001,168.47 0,-11.39999"
           id="line110"
           inkscape:connector-curvature="0" />
      </g>
      <g
         id="g112">
        <path
           style="stroke:#000000;stroke-width:0.60000002"
           d="m 125.84,148.37 0,-8.97001"
           id="line114"
           inkscape:connector-curvature="0" />
        <path
           d="m 128.14,148.6 0,0 0.6,0.35 0,-9.55 -0.6,0 z"
           shape-rendering="geometricPrecision"
           id="path116"
           inkscape:connector-curvature="0"
           style="fill:#000000;fill-rule:evenodd;stroke:#000000;stroke-width:0;stroke-linejoin:miter" />
        <path
           d="m 125.54,148.95 0,0 0.6,-0.35 0,-9.2 -0.6,0 z"
           shape-rendering="geometricPrecision"
           id="path118"
           inkscape:connector-curvature="0"
           style="fill:#000000;fill-rule:evenodd;stroke:#000000;stroke-width:0;stroke-linejoin:miter" />
      </g>
      <g
         id="g120">
        <path
           d="m 127.14,148.02 0,0 0,0.35 0,0.35 -7.7,4.44 -0.15,-0.25 -0.15,-0.26 z"
           shape-rendering="geometricPrecision"
           id="path122"
           inkscape:connector-curvature="0"
           style="fill:#000000;fill-rule:evenodd;stroke:#000000;stroke-width:0;stroke-linejoin:miter" />
      </g>
      <g
         id="g124">
        <path
           d="m 139.61,155.22 0,0 0,0.35 -0.3,0.17 -12.17,-7.02 0,-0.35 0,-0.35 z"
           shape-rendering="geometricPrecision"
           id="path126"
           inkscape:connector-curvature="0"
           style="fill:#000000;fill-rule:evenodd;stroke:#000000;stroke-width:0;stroke-linejoin:miter" />
      </g>
      <g
         id="g128">
        <path
           style="stroke:#000000;stroke-width:0.60000002"
           d="m 186.71001,161.47 9.39,0"
           id="line130"
           inkscape:connector-curvature="0" />
        <path
           d="m 186.36,163.77 0,0 -0.44,0.6 10.18,0 0,-0.6 z"
           shape-rendering="geometricPrecision"
           id="path132"
           inkscape:connector-curvature="0"
           style="fill:#000000;fill-rule:evenodd;stroke:#000000;stroke-width:0;stroke-linejoin:miter" />
        <path
           d="m 185.92,161.17 0,0 0.44,0.6 9.74,0 0,-0.6 z"
           shape-rendering="geometricPrecision"
           id="path134"
           inkscape:connector-curvature="0"
           style="fill:#000000;fill-rule:evenodd;stroke:#000000;stroke-width:0;stroke-linejoin:miter" />
      </g>
      <g
         id="g136">
        <path
           d="m 172.83,199.08 0,0 0.23,-0.26 0.34,0.07 4.45,13.69 -0.34,-0.07 -0.34,-0.07 z"
           shape-rendering="geometricPrecision"
           id="path138"
           inkscape:connector-curvature="0"
           style="fill:#000000;fill-rule:evenodd;stroke:#000000;stroke-width:0;stroke-linejoin:miter" />
      </g>
      <g
         id="g140">
        <path
           d="m 177.17,212.44 0,0 0.34,0.07 0.34,0.07 -9.87,10.96 -0.11,-0.33 -0.11,-0.33 z"
           shape-rendering="geometricPrecision"
           id="path142"
           inkscape:connector-curvature="0"
           style="fill:#000000;fill-rule:evenodd;stroke:#000000;stroke-width:0;stroke-linejoin:miter" />
        <path
           style="stroke:#000000;stroke-width:0.60000002"
           d="m 174.58,211.89 -7.63,8.47"
           id="line144"
           inkscape:connector-curvature="0" />
      </g>
      <g
         id="g146">
        <path
           d="m 167.76,222.88 0,0 0.11,0.33 0.11,0.33 -14.42,-3.06 0.23,-0.26 0.23,-0.26 z"
           shape-rendering="geometricPrecision"
           id="path148"
           inkscape:connector-curvature="0"
           style="fill:#000000;fill-rule:evenodd;stroke:#000000;stroke-width:0;stroke-linejoin:miter" />
      </g>
      <g
         id="g150">
        <path
           d="m 154.02,219.96 0,0 -0.23,0.26 -0.23,0.26 -4.56,-14.03 0.34,0.07 0.34,0.07 z"
           shape-rendering="geometricPrecision"
           id="path152"
           inkscape:connector-curvature="0"
           style="fill:#000000;fill-rule:evenodd;stroke:#000000;stroke-width:0;stroke-linejoin:miter" />
        <path
           style="stroke:#000000;stroke-width:0.60000002"
           d="M 155.78999,217.99001 152.27,207.14"
           id="line154"
           inkscape:connector-curvature="0" />
      </g>
      <g
         id="g156">
        <path
           d="m 149.68,206.59 0,0 -0.34,-0.07 -0.34,-0.07 9.86,-10.96 0.11,0.33 0.11,0.33 z"
           shape-rendering="geometricPrecision"
           id="path158"
           inkscape:connector-curvature="0"
           style="fill:#000000;fill-rule:evenodd;stroke:#000000;stroke-width:0;stroke-linejoin:miter" />
      </g>
      <g
         id="g160">
        <path
           d="m 172.95,198.49 0,0 0.11,0.33 -0.23,0.26 -13.75,-2.93 -0.11,-0.33 -0.11,-0.33 z"
           shape-rendering="geometricPrecision"
           id="path162"
           inkscape:connector-curvature="0"
           style="fill:#000000;fill-rule:evenodd;stroke:#000000;stroke-width:0;stroke-linejoin:miter" />
        <path
           style="stroke:#000000;stroke-width:0.60000002"
           d="M 171.06,201.03999 159.89999,198.67"
           id="line164"
           inkscape:connector-curvature="0" />
      </g>
      <g
         id="g166">
        <path
           d="m 182.35,188.05 0,0 0.34,0.07 0.11,0.33 -9.4,10.44 -0.34,-0.07 -0.11,-0.33 z"
           shape-rendering="geometricPrecision"
           id="path168"
           inkscape:connector-curvature="0"
           style="fill:#000000;fill-rule:evenodd;stroke:#000000;stroke-width:0;stroke-linejoin:miter" />
      </g>
      <g
         id="g170">
        <path
           d="m 201.34,205.13 0,0 -0.11,-0.33 0.23,-0.26 14.09,3 -0.23,0.26 -0.23,0.26 z"
           shape-rendering="geometricPrecision"
           id="path172"
           inkscape:connector-curvature="0"
           style="fill:#000000;fill-rule:evenodd;stroke:#000000;stroke-width:0;stroke-linejoin:miter" />
      </g>
      <g
         id="g174">
        <path
           d="m 215.09,208.06 0,0 0.23,-0.26 0.23,-0.26 4.56,14.02 -0.34,-0.07 -0.34,-0.07 z"
           shape-rendering="geometricPrecision"
           id="path176"
           inkscape:connector-curvature="0"
           style="fill:#000000;fill-rule:evenodd;stroke:#000000;stroke-width:0;stroke-linejoin:miter" />
        <path
           style="stroke:#000000;stroke-width:0.60000002"
           d="M 213.32001,210.02 216.84,220.87"
           id="line178"
           inkscape:connector-curvature="0" />
      </g>
      <g
         id="g180">
        <path
           d="m 219.43,221.42 0,0 0.34,0.07 0.34,0.07 -9.64,10.71 -0.34,-0.07 -0.11,-0.33 z"
           shape-rendering="geometricPrecision"
           id="path182"
           inkscape:connector-curvature="0"
           style="fill:#000000;fill-rule:evenodd;stroke:#000000;stroke-width:0;stroke-linejoin:miter" />
      </g>
      <g
         id="g184">
        <path
           d="m 210.02,231.87 0,0 0.11,0.33 -0.23,0.26 -14.09,-3 0.23,-0.26 0.23,-0.26 z"
           shape-rendering="geometricPrecision"
           id="path186"
           inkscape:connector-curvature="0"
           style="fill:#000000;fill-rule:evenodd;stroke:#000000;stroke-width:0;stroke-linejoin:miter" />
        <path
           style="stroke:#000000;stroke-width:0.60000002"
           d="M 209.2,229.35001 198.03999,226.98"
           id="line188"
           inkscape:connector-curvature="0" />
      </g>
      <g
         id="g190">
        <path
           d="m 196.27,228.94 0,0 -0.23,0.26 -0.23,0.26 -4.56,-14.02 0.34,0.07 0.34,0.07 z"
           shape-rendering="geometricPrecision"
           id="path192"
           inkscape:connector-curvature="0"
           style="fill:#000000;fill-rule:evenodd;stroke:#000000;stroke-width:0;stroke-linejoin:miter" />
      </g>
      <g
         id="g194">
        <path
           d="m 200.89,204.73 0,0 0.34,0.07 0.11,0.33 -9.41,10.45 -0.34,-0.07 -0.34,-0.07 z"
           shape-rendering="geometricPrecision"
           id="path196"
           inkscape:connector-curvature="0"
           style="fill:#000000;fill-rule:evenodd;stroke:#000000;stroke-width:0;stroke-linejoin:miter" />
        <path
           style="stroke:#000000;stroke-width:0.60000002"
           d="M 202.16,207.64999 194.52,216.13"
           id="line198"
           inkscape:connector-curvature="0" />
      </g>
      <g
         id="g200">
        <path
           style="stroke:#000000;stroke-width:0.60000002"
           d="m 229.89,248.48 2.8,8.59999"
           id="line202"
           inkscape:connector-curvature="0" />
        <path
           d="m 227.64,248.97 0,0 -0.68,-0.14 2.97,9.14 0.58,-0.18 z"
           shape-rendering="geometricPrecision"
           id="path204"
           inkscape:connector-curvature="0"
           style="fill:#000000;fill-rule:evenodd;stroke:#000000;stroke-width:0;stroke-linejoin:miter" />
        <path
           d="m 230,247.84 0,0 -0.46,0.51 2.86,8.82 0.57,-0.18 z"
           shape-rendering="geometricPrecision"
           id="path206"
           inkscape:connector-curvature="0"
           style="fill:#000000;fill-rule:evenodd;stroke:#000000;stroke-width:0;stroke-linejoin:miter" />
      </g>
      <g
         id="g208">
        <path
           d="m 228.77,249.21 0,0 -0.11,-0.33 -0.11,-0.33 9.64,-10.7 0.11,0.33 0.11,0.33 z"
           shape-rendering="geometricPrecision"
           id="path210"
           inkscape:connector-curvature="0"
           style="fill:#000000;fill-rule:evenodd;stroke:#000000;stroke-width:0;stroke-linejoin:miter" />
      </g>
      <g
         id="g212">
        <path
           d="m 256.49,237.07 0,0 -0.22,-0.2 -0.22,-0.2 5.86,-6.52 0.11,0.33 0.11,0.33 z"
           shape-rendering="geometricPrecision"
           id="path214"
           inkscape:connector-curvature="0"
           style="fill:#000000;fill-rule:evenodd;stroke:#000000;stroke-width:0;stroke-linejoin:miter" />
      </g>
      <g
         id="g216">
        <path
           d="m 262.13,230.81 0,0 -0.11,-0.33 -0.11,-0.33 14.43,3.06 -0.23,0.26 -0.23,0.26 z"
           shape-rendering="geometricPrecision"
           id="path218"
           inkscape:connector-curvature="0"
           style="fill:#000000;fill-rule:evenodd;stroke:#000000;stroke-width:0;stroke-linejoin:miter" />
      </g>
      <g
         id="g220">
        <path
           d="m 275.88,233.73 0,0 0.23,-0.26 0.23,-0.26 3.24,9.98 -0.28,0.09 -0.29,0.09 z"
           shape-rendering="geometricPrecision"
           id="path222"
           inkscape:connector-curvature="0"
           style="fill:#000000;fill-rule:evenodd;stroke:#000000;stroke-width:0;stroke-linejoin:miter" />
      </g>
      <g
         id="g224">
        <path
           d="m 276.51,251.21 0,0 0.22,0.21 0.22,0.2 -5.92,6.58 -0.11,-0.33 -0.11,-0.33 z"
           shape-rendering="geometricPrecision"
           id="path226"
           inkscape:connector-curvature="0"
           style="fill:#000000;fill-rule:evenodd;stroke:#000000;stroke-width:0;stroke-linejoin:miter" />
      </g>
      <g
         id="g228">
        <path
           d="m 270.81,257.54 0,0 0.11,0.33 0.11,0.33 -14.42,-3.07 0.23,-0.26 0.23,-0.26 z"
           shape-rendering="geometricPrecision"
           id="path230"
           inkscape:connector-curvature="0"
           style="fill:#000000;fill-rule:evenodd;stroke:#000000;stroke-width:0;stroke-linejoin:miter" />
      </g>
      <g
         id="g232">
        <path
           d="m 253.39,245.21 0,0 0.28,-0.09 0.29,-0.09 3.11,9.58 -0.23,0.26 -0.23,0.26 z"
           shape-rendering="geometricPrecision"
           id="path234"
           inkscape:connector-curvature="0"
           style="fill:#000000;fill-rule:evenodd;stroke:#000000;stroke-width:0;stroke-linejoin:miter" />
      </g>
      <g
         id="g236">
        <path
           d="m 284.9,248.39 0,0 0.06,-0.29 0.07,-0.29 9.67,2.06 -0.06,0.29 -0.06,0.29 z"
           shape-rendering="geometricPrecision"
           id="path238"
           inkscape:connector-curvature="0"
           style="fill:#000000;fill-rule:evenodd;stroke:#000000;stroke-width:0;stroke-linejoin:miter" />
      </g>
      <g
         id="g240">
        <path
           d="m 238.41,238.51 0,0 -0.11,-0.33 -0.11,-0.33 9.91,2.11 -0.06,0.29 -0.07,0.3 z"
           shape-rendering="geometricPrecision"
           id="path242"
           inkscape:connector-curvature="0"
           style="fill:#000000;fill-rule:evenodd;stroke:#000000;stroke-width:0;stroke-linejoin:miter" />
      </g>
      <g
         id="g244">
        <path
           d="m 218.9,247.11 0,0 0.07,-0.29 0.06,-0.29 9.52,2.02 0.11,0.33 0.11,0.33 z"
           shape-rendering="geometricPrecision"
           id="path246"
           inkscape:connector-curvature="0"
           style="fill:#000000;fill-rule:evenodd;stroke:#000000;stroke-width:0;stroke-linejoin:miter" />
      </g>
      <g
         id="g248">
        <path
           d="m 210.51,249.96 0,0 0.22,0.2 0.22,0.21 -5.79,6.42 -0.22,-0.2 -0.22,-0.2 z"
           shape-rendering="geometricPrecision"
           id="path250"
           inkscape:connector-curvature="0"
           style="fill:#000000;fill-rule:evenodd;stroke:#000000;stroke-width:0;stroke-linejoin:miter" />
      </g>
      <g
         id="g252">
        <path
           d="m 209.9,232.46 0,0 0.23,-0.26 0.34,0.07 3.12,9.62 -0.28,0.09 -0.29,0.09 z"
           shape-rendering="geometricPrecision"
           id="path254"
           inkscape:connector-curvature="0"
           style="fill:#000000;fill-rule:evenodd;stroke:#000000;stroke-width:0;stroke-linejoin:miter" />
      </g>
      <g
         id="g256">
        <path
           d="m 197.83,195.31 0,0 0.29,-0.09 0.28,-0.09 3.06,9.41 -0.23,0.26 -0.34,-0.07 z"
           shape-rendering="geometricPrecision"
           id="path258"
           inkscape:connector-curvature="0"
           style="fill:#000000;fill-rule:evenodd;stroke:#000000;stroke-width:0;stroke-linejoin:miter" />
      </g>
      <g
         id="g260">
        <path
           d="m 182.8,188.45 0,0 -0.11,-0.33 0.23,-0.26 9.58,2.03 -0.07,0.3 -0.06,0.29 z"
           shape-rendering="geometricPrecision"
           id="path262"
           inkscape:connector-curvature="0"
           style="fill:#000000;fill-rule:evenodd;stroke:#000000;stroke-width:0;stroke-linejoin:miter" />
      </g>
      <g
         id="g264">
        <path
           d="m 178.01,174.66 0,0 0.24,-0.24 0.33,0.05 4.34,13.39 -0.23,0.26 -0.34,-0.07 z"
           shape-rendering="geometricPrecision"
           id="path266"
           inkscape:connector-curvature="0"
           style="fill:#000000;fill-rule:evenodd;stroke:#000000;stroke-width:0;stroke-linejoin:miter" />
        <path
           style="stroke:#000000;stroke-width:0.60000002"
           d="m 176.19,176.48 3.56999,11.02"
           id="line268"
           inkscape:connector-curvature="0" />
      </g>
      <g
         id="g270">
        <path
           d="m 110.36,152.74 0,0 -0.15,0.26 -0.15,0.26 -8.01,-4.63 0.15,-0.26 0.15,-0.26 z"
           shape-rendering="geometricPrecision"
           id="path272"
           inkscape:connector-curvature="0"
           style="fill:#000000;fill-rule:evenodd;stroke:#000000;stroke-width:0;stroke-linejoin:miter" />
      </g>
    </g>
  </g>
</svg>
